# MagicaVoxel @ Ephtracy

# group
o 

# material
mtllib tomato.mtl
usemtl palette

# normals
vn -1 0 0
vn 1 0 0
vn 0 0 1
vn 0 0 -1
vn 0 -1 0
vn 0 1 0

# texcoords
vt 0.939453 0.5
vt 0.943359 0.5
vt 0.947266 0.5
vt 0.951172 0.5

# verts
v -0.5 0 0.2
v -0.5 0 -0.2
v -0.5 0.1 0.2
v -0.5 0.1 -0.2
v -0.4 0 0.4
v -0.4 0 0.2
v -0.4 0 -0.2
v -0.4 0 -0.4
v -0.4 0.1 0.4
v -0.4 0.1 0.2
v -0.4 0.1 -0.2
v -0.4 0.1 -0.4
v -0.2 0 0.5
v -0.2 0 0.4
v -0.2 0 -0.4
v -0.2 0 -0.5
v -0.2 0.1 0.5
v -0.2 0.1 0.4
v -0.2 0.1 -0.4
v -0.2 0.1 -0.5
v 0.2 0 0.5
v 0.2 0 0.4
v 0.2 0 -0.4
v 0.2 0 -0.5
v 0.2 0.1 0.5
v 0.2 0.1 0.4
v 0.2 0.1 -0.4
v 0.2 0.1 -0.5
v 0.4 0 0.4
v 0.4 0 0.2
v 0.4 0 -0.2
v 0.4 0 -0.4
v 0.4 0.1 0.4
v 0.4 0.1 0.2
v 0.4 0.1 -0.2
v 0.4 0.1 -0.4
v 0.5 0 0.2
v 0.5 0 -0.2
v 0.5 0.1 0.2
v 0.5 0.1 -0.2
v -0.2 0 0.5
v -0.2 0.1 0.5
v 0.2 0 0.5
v 0.2 0.1 0.5
v -0.4 0 0.4
v -0.4 0.1 0.4
v -0.2 0 0.4
v -0.2 0.1 0.4
v 0.2 0 0.4
v 0.2 0.1 0.4
v 0.4 0 0.4
v 0.4 0.1 0.4
v -0.5 0 0.2
v -0.5 0.1 0.2
v -0.4 0 0.2
v -0.4 0.1 0.2
v 0.4 0 0.2
v 0.4 0.1 0.2
v 0.5 0 0.2
v 0.5 0.1 0.2
v -0.5 0 -0.2
v -0.5 0.1 -0.2
v -0.4 0 -0.2
v -0.4 0.1 -0.2
v 0.4 0 -0.2
v 0.4 0.1 -0.2
v 0.5 0 -0.2
v 0.5 0.1 -0.2
v -0.4 0 -0.4
v -0.4 0.1 -0.4
v -0.2 0 -0.4
v -0.2 0.1 -0.4
v 0.2 0 -0.4
v 0.2 0.1 -0.4
v 0.4 0 -0.4
v 0.4 0.1 -0.4
v -0.2 0 -0.5
v -0.2 0.1 -0.5
v 0.2 0 -0.5
v 0.2 0.1 -0.5
v -0.2 0 0.5
v 0.2 0 0.5
v -0.4 0 0.4
v -0.2 0 0.4
v -0.1 0 0.4
v 0.1 0 0.4
v 0.2 0 0.4
v 0.4 0 0.4
v -0.3 0 0.3
v -0.1 0 0.3
v 0 0 0.3
v 0.1 0 0.3
v 0.3 0 0.3
v -0.5 0 0.2
v -0.4 0 0.2
v -0.2 0 0.2
v -0.1 0 0.2
v 0 0 0.2
v 0.1 0 0.2
v 0.2 0 0.2
v 0.4 0 0.2
v 0.5 0 0.2
v -0.4 0 0.1
v -0.3 0 0.1
v -0.2 0 0.1
v 0.1 0 0.1
v 0.2 0 0.1
v 0.3 0 0.1
v 0.4 0 0.1
v -0.3 0 0
v -0.2 0 0
v 0.2 0 0
v 0.3 0 0
v -0.4 0 -0.1
v -0.3 0 -0.1
v -0.2 0 -0.1
v -0.1 0 -0.1
v 0.2 0 -0.1
v 0.3 0 -0.1
v 0.4 0 -0.1
v -0.5 0 -0.2
v -0.4 0 -0.2
v -0.2 0 -0.2
v -0.1 0 -0.2
v 0 0 -0.2
v 0.1 0 -0.2
v 0.2 0 -0.2
v 0.4 0 -0.2
v 0.5 0 -0.2
v -0.3 0 -0.3
v -0.1 0 -0.3
v 0 0 -0.3
v 0.1 0 -0.3
v 0.3 0 -0.3
v -0.4 0 -0.4
v -0.2 0 -0.4
v -0.1 0 -0.4
v 0.1 0 -0.4
v 0.2 0 -0.4
v 0.4 0 -0.4
v -0.2 0 -0.5
v 0.2 0 -0.5
v -0.2 0.1 0.5
v 0.2 0.1 0.5
v -0.4 0.1 0.4
v -0.2 0.1 0.4
v -0.1 0.1 0.4
v 0.1 0.1 0.4
v 0.2 0.1 0.4
v 0.4 0.1 0.4
v -0.3 0.1 0.3
v -0.1 0.1 0.3
v 0 0.1 0.3
v 0.1 0.1 0.3
v 0.3 0.1 0.3
v -0.5 0.1 0.2
v -0.4 0.1 0.2
v -0.2 0.1 0.2
v -0.1 0.1 0.2
v 0 0.1 0.2
v 0.1 0.1 0.2
v 0.2 0.1 0.2
v 0.4 0.1 0.2
v 0.5 0.1 0.2
v -0.4 0.1 0.1
v -0.3 0.1 0.1
v -0.2 0.1 0.1
v 0.1 0.1 0.1
v 0.2 0.1 0.1
v 0.3 0.1 0.1
v 0.4 0.1 0.1
v -0.3 0.1 0
v -0.2 0.1 0
v 0.2 0.1 0
v 0.3 0.1 0
v -0.4 0.1 -0.1
v -0.3 0.1 -0.1
v -0.2 0.1 -0.1
v -0.1 0.1 -0.1
v 0.2 0.1 -0.1
v 0.3 0.1 -0.1
v 0.4 0.1 -0.1
v -0.5 0.1 -0.2
v -0.4 0.1 -0.2
v -0.2 0.1 -0.2
v -0.1 0.1 -0.2
v 0 0.1 -0.2
v 0.1 0.1 -0.2
v 0.2 0.1 -0.2
v 0.4 0.1 -0.2
v 0.5 0.1 -0.2
v -0.3 0.1 -0.3
v -0.1 0.1 -0.3
v 0 0.1 -0.3
v 0.1 0.1 -0.3
v 0.3 0.1 -0.3
v -0.4 0.1 -0.4
v -0.2 0.1 -0.4
v -0.1 0.1 -0.4
v 0.1 0.1 -0.4
v 0.2 0.1 -0.4
v 0.4 0.1 -0.4
v -0.2 0.1 -0.5
v 0.2 0.1 -0.5

# faces
f 3/1/1 2/1/1 1/1/1
f 4/1/1 2/1/1 3/1/1
f 9/1/1 6/1/1 5/1/1
f 10/1/1 6/1/1 9/1/1
f 11/1/1 8/1/1 7/1/1
f 12/1/1 8/1/1 11/1/1
f 17/1/1 14/1/1 13/1/1
f 18/1/1 14/1/1 17/1/1
f 19/1/1 16/1/1 15/1/1
f 20/1/1 16/1/1 19/1/1
f 21/1/2 22/1/2 25/1/2
f 25/1/2 22/1/2 26/1/2
f 23/1/2 24/1/2 27/1/2
f 27/1/2 24/1/2 28/1/2
f 29/1/2 30/1/2 33/1/2
f 33/1/2 30/1/2 34/1/2
f 31/1/2 32/1/2 35/1/2
f 35/1/2 32/1/2 36/1/2
f 37/1/2 38/1/2 39/1/2
f 39/1/2 38/1/2 40/1/2
f 43/1/3 42/1/3 41/1/3
f 44/1/3 42/1/3 43/1/3
f 47/1/3 46/1/3 45/1/3
f 48/1/3 46/1/3 47/1/3
f 51/1/3 50/1/3 49/1/3
f 52/1/3 50/1/3 51/1/3
f 55/1/3 54/1/3 53/1/3
f 56/1/3 54/1/3 55/1/3
f 59/1/3 58/1/3 57/1/3
f 60/1/3 58/1/3 59/1/3
f 61/1/4 62/1/4 63/1/4
f 63/1/4 62/1/4 64/1/4
f 65/1/4 66/1/4 67/1/4
f 67/1/4 66/1/4 68/1/4
f 69/1/4 70/1/4 71/1/4
f 71/1/4 70/1/4 72/1/4
f 73/1/4 74/1/4 75/1/4
f 75/1/4 74/1/4 76/1/4
f 77/1/4 78/1/4 79/1/4
f 79/1/4 78/1/4 80/1/4
f 84/1/5 82/1/5 81/1/5
f 85/1/5 82/1/5 84/1/5
f 86/1/5 82/1/5 85/1/5
f 87/1/5 82/1/5 86/1/5
f 89/1/5 84/1/5 83/1/5
f 89/1/5 85/1/5 84/1/5
f 90/3/5 86/3/5 85/3/5
f 90/1/5 85/1/5 89/1/5
f 91/3/5 86/3/5 90/3/5
f 92/1/5 88/1/5 87/1/5
f 92/3/5 86/3/5 91/3/5
f 92/1/5 87/1/5 86/1/5
f 93/1/5 88/1/5 92/1/5
f 95/1/5 89/1/5 83/1/5
f 96/3/5 90/3/5 89/3/5
f 97/4/5 91/4/5 90/4/5
f 97/3/5 90/3/5 96/3/5
f 98/2/5 92/2/5 91/2/5
f 98/4/5 91/4/5 97/4/5
f 99/3/5 93/3/5 92/3/5
f 99/2/5 92/2/5 98/2/5
f 100/3/5 93/3/5 99/3/5
f 101/1/5 88/1/5 93/1/5
f 103/1/5 95/1/5 94/1/5
f 103/1/5 89/1/5 95/1/5
f 104/3/5 96/3/5 89/3/5
f 104/1/5 89/1/5 103/1/5
f 105/2/5 97/2/5 96/2/5
f 105/3/5 96/3/5 104/3/5
f 105/2/5 98/2/5 97/2/5
f 105/2/5 99/2/5 98/2/5
f 106/4/5 100/4/5 99/4/5
f 106/2/5 99/2/5 105/2/5
f 107/3/5 93/3/5 100/3/5
f 107/4/5 100/4/5 106/4/5
f 108/1/5 102/1/5 101/1/5
f 108/3/5 93/3/5 107/3/5
f 108/1/5 101/1/5 93/1/5
f 109/1/5 102/1/5 108/1/5
f 110/3/5 104/3/5 103/3/5
f 110/4/5 105/4/5 104/4/5
f 111/2/5 107/2/5 106/2/5
f 111/4/5 105/4/5 110/4/5
f 111/2/5 106/2/5 105/2/5
f 111/2/5 108/2/5 107/2/5
f 112/2/5 108/2/5 111/2/5
f 113/3/5 109/3/5 108/3/5
f 113/2/5 108/2/5 112/2/5
f 114/1/5 103/1/5 94/1/5
f 114/3/5 110/3/5 103/3/5
f 115/2/5 112/2/5 111/2/5
f 115/3/5 110/3/5 114/3/5
f 115/2/5 111/2/5 110/2/5
f 116/2/5 112/2/5 115/2/5
f 117/2/5 112/2/5 116/2/5
f 118/4/5 113/4/5 112/4/5
f 118/2/5 112/2/5 117/2/5
f 119/3/5 109/3/5 113/3/5
f 119/4/5 113/4/5 118/4/5
f 120/1/5 102/1/5 109/1/5
f 120/3/5 109/3/5 119/3/5
f 121/1/5 114/1/5 94/1/5
f 121/1/5 115/1/5 114/1/5
f 122/1/5 115/1/5 121/1/5
f 123/4/5 117/4/5 116/4/5
f 123/3/5 116/3/5 115/3/5
f 124/2/5 118/2/5 117/2/5
f 124/4/5 117/4/5 123/4/5
f 125/2/5 118/2/5 124/2/5
f 126/2/5 118/2/5 125/2/5
f 127/3/5 119/3/5 118/3/5
f 127/2/5 118/2/5 126/2/5
f 128/1/5 102/1/5 120/1/5
f 128/1/5 120/1/5 119/1/5
f 129/1/5 102/1/5 128/1/5
f 130/3/5 123/3/5 115/3/5
f 130/1/5 115/1/5 122/1/5
f 130/3/5 124/3/5 123/3/5
f 131/2/5 125/2/5 124/2/5
f 131/3/5 124/3/5 130/3/5
f 132/4/5 126/4/5 125/4/5
f 132/2/5 125/2/5 131/2/5
f 133/3/5 127/3/5 126/3/5
f 133/4/5 126/4/5 132/4/5
f 134/1/5 128/1/5 119/1/5
f 134/3/5 127/3/5 133/3/5
f 134/3/5 119/3/5 127/3/5
f 135/1/5 131/1/5 130/1/5
f 135/1/5 130/1/5 122/1/5
f 136/1/5 131/1/5 135/1/5
f 137/3/5 133/3/5 132/3/5
f 137/1/5 131/1/5 136/1/5
f 137/3/5 132/3/5 131/3/5
f 138/1/5 134/1/5 133/1/5
f 138/3/5 133/3/5 137/3/5
f 139/1/5 134/1/5 138/1/5
f 140/1/5 128/1/5 134/1/5
f 140/1/5 134/1/5 139/1/5
f 141/1/5 139/1/5 138/1/5
f 141/1/5 138/1/5 137/1/5
f 141/1/5 137/1/5 136/1/5
f 142/1/5 139/1/5 141/1/5
f 143/1/6 144/1/6 146/1/6
f 146/1/6 144/1/6 147/1/6
f 147/1/6 144/1/6 148/1/6
f 148/1/6 144/1/6 149/1/6
f 145/1/6 146/1/6 151/1/6
f 146/1/6 147/1/6 151/1/6
f 147/3/6 148/3/6 152/3/6
f 151/1/6 147/1/6 152/1/6
f 152/3/6 148/3/6 153/3/6
f 149/1/6 150/1/6 154/1/6
f 153/3/6 148/3/6 154/3/6
f 148/1/6 149/1/6 154/1/6
f 154/1/6 150/1/6 155/1/6
f 145/1/6 151/1/6 157/1/6
f 151/3/6 152/3/6 158/3/6
f 152/4/6 153/4/6 159/4/6
f 158/3/6 152/3/6 159/3/6
f 153/2/6 154/2/6 160/2/6
f 159/4/6 153/4/6 160/4/6
f 154/3/6 155/3/6 161/3/6
f 160/2/6 154/2/6 161/2/6
f 161/3/6 155/3/6 162/3/6
f 155/1/6 150/1/6 163/1/6
f 156/1/6 157/1/6 165/1/6
f 157/1/6 151/1/6 165/1/6
f 151/3/6 158/3/6 166/3/6
f 165/1/6 151/1/6 166/1/6
f 158/2/6 159/2/6 167/2/6
f 166/3/6 158/3/6 167/3/6
f 159/2/6 160/2/6 167/2/6
f 160/2/6 161/2/6 167/2/6
f 161/4/6 162/4/6 168/4/6
f 167/2/6 161/2/6 168/2/6
f 162/3/6 155/3/6 169/3/6
f 168/4/6 162/4/6 169/4/6
f 163/1/6 164/1/6 170/1/6
f 169/3/6 155/3/6 170/3/6
f 155/1/6 163/1/6 170/1/6
f 170/1/6 164/1/6 171/1/6
f 165/3/6 166/3/6 172/3/6
f 166/4/6 167/4/6 172/4/6
f 168/2/6 169/2/6 173/2/6
f 172/4/6 167/4/6 173/4/6
f 167/2/6 168/2/6 173/2/6
f 169/2/6 170/2/6 173/2/6
f 173/2/6 170/2/6 174/2/6
f 170/3/6 171/3/6 175/3/6
f 174/2/6 170/2/6 175/2/6
f 156/1/6 165/1/6 176/1/6
f 165/3/6 172/3/6 176/3/6
f 173/2/6 174/2/6 177/2/6
f 176/3/6 172/3/6 177/3/6
f 172/2/6 173/2/6 177/2/6
f 177/2/6 174/2/6 178/2/6
f 178/2/6 174/2/6 179/2/6
f 174/4/6 175/4/6 180/4/6
f 179/2/6 174/2/6 180/2/6
f 175/3/6 171/3/6 181/3/6
f 180/4/6 175/4/6 181/4/6
f 171/1/6 164/1/6 182/1/6
f 181/3/6 171/3/6 182/3/6
f 156/1/6 176/1/6 183/1/6
f 176/1/6 177/1/6 183/1/6
f 183/1/6 177/1/6 184/1/6
f 178/4/6 179/4/6 185/4/6
f 177/3/6 178/3/6 185/3/6
f 179/2/6 180/2/6 186/2/6
f 185/4/6 179/4/6 186/4/6
f 186/2/6 180/2/6 187/2/6
f 187/2/6 180/2/6 188/2/6
f 180/3/6 181/3/6 189/3/6
f 188/2/6 180/2/6 189/2/6
f 182/1/6 164/1/6 190/1/6
f 181/1/6 182/1/6 190/1/6
f 190/1/6 164/1/6 191/1/6
f 177/3/6 185/3/6 192/3/6
f 184/1/6 177/1/6 192/1/6
f 185/3/6 186/3/6 192/3/6
f 186/2/6 187/2/6 193/2/6
f 192/3/6 186/3/6 193/3/6
f 187/4/6 188/4/6 194/4/6
f 193/2/6 187/2/6 194/2/6
f 188/3/6 189/3/6 195/3/6
f 194/4/6 188/4/6 195/4/6
f 181/1/6 190/1/6 196/1/6
f 195/3/6 189/3/6 196/3/6
f 189/3/6 181/3/6 196/3/6
f 192/1/6 193/1/6 197/1/6
f 184/1/6 192/1/6 197/1/6
f 197/1/6 193/1/6 198/1/6
f 194/3/6 195/3/6 199/3/6
f 198/1/6 193/1/6 199/1/6
f 193/3/6 194/3/6 199/3/6
f 195/1/6 196/1/6 200/1/6
f 199/3/6 195/3/6 200/3/6
f 200/1/6 196/1/6 201/1/6
f 196/1/6 190/1/6 202/1/6
f 201/1/6 196/1/6 202/1/6
f 200/1/6 201/1/6 203/1/6
f 199/1/6 200/1/6 203/1/6
f 198/1/6 199/1/6 203/1/6
f 203/1/6 201/1/6 204/1/6
